<?xml version="1.0" encoding="utf-8" standalone="no"?>
<!DOCTYPE svg PUBLIC "-//W3C//DTD SVG 1.1//EN"
  "http://www.w3.org/Graphics/SVG/1.1/DTD/svg11.dtd">
<!-- Created with matplotlib (http://matplotlib.org/) -->
<svg height="396pt" version="1.1" viewBox="0 0 576 396" width="576pt" xmlns="http://www.w3.org/2000/svg" xmlns:xlink="http://www.w3.org/1999/xlink">
 <defs>
  <style type="text/css">
*{stroke-linecap:butt;stroke-linejoin:round;}
  </style>
 </defs>
 <g id="figure_1">
  <g id="patch_1">
   <path d="M 0 396 
L 576 396 
L 576 0 
L 0 0 
z
" style="fill:#ffffff;"/>
  </g>
  <g id="axes_1">
   <g id="patch_2">
    <path d="M 72 346.5 
L 518.4 346.5 
L 518.4 47.52 
L 72 47.52 
z
" style="fill:#ffffff;"/>
   </g>
   <g id="matplotlib.axis_1">
    <g id="xtick_1">
     <g id="line2d_1">
      <path clip-path="url(#p464a59a7cb)" d="M 113.824119 346.5 
L 113.824119 47.52 
" style="fill:none;stroke:#cccccc;stroke-linecap:round;"/>
     </g>
     <g id="line2d_2"/>
     <g id="text_1">
      <text style="fill:#262626;font-family:Franklin ITC Std;font-size:10px;font-style:normal;font-weight:400;text-anchor:middle;" transform="rotate(-0, 113.824119, 360.170313)" x="113.824119" y="360.170313">75</text>
     </g>
    </g>
    <g id="xtick_2">
     <g id="line2d_3">
      <path clip-path="url(#p464a59a7cb)" d="M 196.644156 346.5 
L 196.644156 47.52 
" style="fill:none;stroke:#cccccc;stroke-linecap:round;"/>
     </g>
     <g id="line2d_4"/>
     <g id="text_2">
      <text style="fill:#262626;font-family:Franklin ITC Std;font-size:10px;font-style:normal;font-weight:400;text-anchor:middle;" transform="rotate(-0, 196.644156, 360.170313)" x="196.644156" y="360.170313">80</text>
     </g>
    </g>
    <g id="xtick_3">
     <g id="line2d_5">
      <path clip-path="url(#p464a59a7cb)" d="M 279.464193 346.5 
L 279.464193 47.52 
" style="fill:none;stroke:#cccccc;stroke-linecap:round;"/>
     </g>
     <g id="line2d_6"/>
     <g id="text_3">
      <text style="fill:#262626;font-family:Franklin ITC Std;font-size:10px;font-style:normal;font-weight:400;text-anchor:middle;" transform="rotate(-0, 279.464193, 360.170313)" x="279.464193" y="360.170313">85</text>
     </g>
    </g>
    <g id="xtick_4">
     <g id="line2d_7">
      <path clip-path="url(#p464a59a7cb)" d="M 362.28423 346.5 
L 362.28423 47.52 
" style="fill:none;stroke:#cccccc;stroke-linecap:round;"/>
     </g>
     <g id="line2d_8"/>
     <g id="text_4">
      <text style="fill:#262626;font-family:Franklin ITC Std;font-size:10px;font-style:normal;font-weight:400;text-anchor:middle;" transform="rotate(-0, 362.28423, 360.170313)" x="362.28423" y="360.170313">90</text>
     </g>
    </g>
    <g id="xtick_5">
     <g id="line2d_9">
      <path clip-path="url(#p464a59a7cb)" d="M 445.104267 346.5 
L 445.104267 47.52 
" style="fill:none;stroke:#cccccc;stroke-linecap:round;"/>
     </g>
     <g id="line2d_10"/>
     <g id="text_5">
      <text style="fill:#262626;font-family:Franklin ITC Std;font-size:10px;font-style:normal;font-weight:400;text-anchor:middle;" transform="rotate(-0, 445.104267, 360.170313)" x="445.104267" y="360.170313">95</text>
     </g>
    </g>
   </g>
   <g id="matplotlib.axis_2">
    <g id="ytick_1">
     <g id="line2d_11">
      <path clip-path="url(#p464a59a7cb)" d="M 72 346.5 
L 518.4 346.5 
" style="fill:none;stroke:#cccccc;stroke-linecap:round;"/>
     </g>
     <g id="line2d_12"/>
     <g id="text_6">
      <text style="fill:#262626;font-family:Franklin ITC Std;font-size:10px;font-style:normal;font-weight:400;text-anchor:end;" transform="rotate(-0, 65, 349.835156)" x="65" y="349.835156">0</text>
     </g>
    </g>
    <g id="ytick_2">
     <g id="line2d_13">
      <path clip-path="url(#p464a59a7cb)" d="M 72 312.921833 
L 518.4 312.921833 
" style="fill:none;stroke:#cccccc;stroke-linecap:round;"/>
     </g>
     <g id="line2d_14"/>
     <g id="text_7">
      <text style="fill:#262626;font-family:Franklin ITC Std;font-size:10px;font-style:normal;font-weight:400;text-anchor:end;" transform="rotate(-0, 65, 316.256989)" x="65" y="316.256989">25</text>
     </g>
    </g>
    <g id="ytick_3">
     <g id="line2d_15">
      <path clip-path="url(#p464a59a7cb)" d="M 72 279.343666 
L 518.4 279.343666 
" style="fill:none;stroke:#cccccc;stroke-linecap:round;"/>
     </g>
     <g id="line2d_16"/>
     <g id="text_8">
      <text style="fill:#262626;font-family:Franklin ITC Std;font-size:10px;font-style:normal;font-weight:400;text-anchor:end;" transform="rotate(-0, 65, 282.678822)" x="65" y="282.678822">50</text>
     </g>
    </g>
    <g id="ytick_4">
     <g id="line2d_17">
      <path clip-path="url(#p464a59a7cb)" d="M 72 245.765499 
L 518.4 245.765499 
" style="fill:none;stroke:#cccccc;stroke-linecap:round;"/>
     </g>
     <g id="line2d_18"/>
     <g id="text_9">
      <text style="fill:#262626;font-family:Franklin ITC Std;font-size:10px;font-style:normal;font-weight:400;text-anchor:end;" transform="rotate(-0, 65, 249.100655)" x="65" y="249.100655">75</text>
     </g>
    </g>
    <g id="ytick_5">
     <g id="line2d_19">
      <path clip-path="url(#p464a59a7cb)" d="M 72 212.187332 
L 518.4 212.187332 
" style="fill:none;stroke:#cccccc;stroke-linecap:round;"/>
     </g>
     <g id="line2d_20"/>
     <g id="text_10">
      <text style="fill:#262626;font-family:Franklin ITC Std;font-size:10px;font-style:normal;font-weight:400;text-anchor:end;" transform="rotate(-0, 65, 215.522488)" x="65" y="215.522488">100</text>
     </g>
    </g>
    <g id="ytick_6">
     <g id="line2d_21">
      <path clip-path="url(#p464a59a7cb)" d="M 72 178.609164 
L 518.4 178.609164 
" style="fill:none;stroke:#cccccc;stroke-linecap:round;"/>
     </g>
     <g id="line2d_22"/>
     <g id="text_11">
      <text style="fill:#262626;font-family:Franklin ITC Std;font-size:10px;font-style:normal;font-weight:400;text-anchor:end;" transform="rotate(-0, 65, 181.944321)" x="65" y="181.944321">125</text>
     </g>
    </g>
    <g id="ytick_7">
     <g id="line2d_23">
      <path clip-path="url(#p464a59a7cb)" d="M 72 145.030997 
L 518.4 145.030997 
" style="fill:none;stroke:#cccccc;stroke-linecap:round;"/>
     </g>
     <g id="line2d_24"/>
     <g id="text_12">
      <text style="fill:#262626;font-family:Franklin ITC Std;font-size:10px;font-style:normal;font-weight:400;text-anchor:end;" transform="rotate(-0, 65, 148.366154)" x="65" y="148.366154">150</text>
     </g>
    </g>
    <g id="ytick_8">
     <g id="line2d_25">
      <path clip-path="url(#p464a59a7cb)" d="M 72 111.45283 
L 518.4 111.45283 
" style="fill:none;stroke:#cccccc;stroke-linecap:round;"/>
     </g>
     <g id="line2d_26"/>
     <g id="text_13">
      <text style="fill:#262626;font-family:Franklin ITC Std;font-size:10px;font-style:normal;font-weight:400;text-anchor:end;" transform="rotate(-0, 65, 114.787986)" x="65" y="114.787986">175</text>
     </g>
    </g>
    <g id="ytick_9">
     <g id="line2d_27">
      <path clip-path="url(#p464a59a7cb)" d="M 72 77.874663 
L 518.4 77.874663 
" style="fill:none;stroke:#cccccc;stroke-linecap:round;"/>
     </g>
     <g id="line2d_28"/>
     <g id="text_14">
      <text style="fill:#262626;font-family:Franklin ITC Std;font-size:10px;font-style:normal;font-weight:400;text-anchor:end;" transform="rotate(-0, 65, 81.209819)" x="65" y="81.209819">200</text>
     </g>
    </g>
    <g id="text_15">
     <text style="fill:#262626;font-family:Franklin ITC Std;font-size:12px;font-style:normal;font-weight:400;text-anchor:middle;" transform="rotate(-90, 41.435312, 197.01)" x="41.435312" y="197.01">Frequency</text>
    </g>
   </g>
   <g id="patch_3">
    <path clip-path="url(#p464a59a7cb)" d="M 92.290909 346.5 
L 105.818182 346.5 
L 105.818182 343.813747 
L 92.290909 343.813747 
z
" style="fill:#4878cf;"/>
   </g>
   <g id="patch_4">
    <path clip-path="url(#p464a59a7cb)" d="M 105.818182 346.5 
L 119.345455 346.5 
L 119.345455 341.127493 
L 105.818182 341.127493 
z
" style="fill:#4878cf;"/>
   </g>
   <g id="patch_5">
    <path clip-path="url(#p464a59a7cb)" d="M 119.345455 346.5 
L 132.872727 346.5 
L 132.872727 325.009973 
L 119.345455 325.009973 
z
" style="fill:#4878cf;"/>
   </g>
   <g id="patch_6">
    <path clip-path="url(#p464a59a7cb)" d="M 132.872727 346.5 
L 146.4 346.5 
L 146.4 319.637466 
L 132.872727 319.637466 
z
" style="fill:#4878cf;"/>
   </g>
   <g id="patch_7">
    <path clip-path="url(#p464a59a7cb)" d="M 146.4 346.5 
L 159.927273 346.5 
L 159.927273 300.833693 
L 146.4 300.833693 
z
" style="fill:#4878cf;"/>
   </g>
   <g id="patch_8">
    <path clip-path="url(#p464a59a7cb)" d="M 159.927273 346.5 
L 173.454545 346.5 
L 173.454545 296.804313 
L 159.927273 296.804313 
z
" style="fill:#4878cf;"/>
   </g>
   <g id="patch_9">
    <path clip-path="url(#p464a59a7cb)" d="M 173.454545 346.5 
L 186.981818 346.5 
L 186.981818 320.980593 
L 173.454545 320.980593 
z
" style="fill:#4878cf;"/>
   </g>
   <g id="patch_10">
    <path clip-path="url(#p464a59a7cb)" d="M 186.981818 346.5 
L 200.509091 346.5 
L 200.509091 339.784367 
L 186.981818 339.784367 
z
" style="fill:#4878cf;"/>
   </g>
   <g id="patch_11">
    <path clip-path="url(#p464a59a7cb)" d="M 200.509091 346.5 
L 214.036364 346.5 
L 214.036364 343.813747 
L 200.509091 343.813747 
z
" style="fill:#4878cf;"/>
   </g>
   <g id="patch_12">
    <path clip-path="url(#p464a59a7cb)" d="M 214.036364 346.5 
L 227.563636 346.5 
L 227.563636 342.47062 
L 214.036364 342.47062 
z
" style="fill:#4878cf;"/>
   </g>
   <g id="patch_13">
    <path clip-path="url(#p464a59a7cb)" d="M 227.563636 346.5 
L 241.090909 346.5 
L 241.090909 333.068733 
L 227.563636 333.068733 
z
" style="fill:#4878cf;"/>
   </g>
   <g id="patch_14">
    <path clip-path="url(#p464a59a7cb)" d="M 241.090909 346.5 
L 254.618182 346.5 
L 254.618182 300.833693 
L 241.090909 300.833693 
z
" style="fill:#4878cf;"/>
   </g>
   <g id="patch_15">
    <path clip-path="url(#p464a59a7cb)" d="M 254.618182 346.5 
L 268.145455 346.5 
L 268.145455 232.334232 
L 254.618182 232.334232 
z
" style="fill:#4878cf;"/>
   </g>
   <g id="patch_16">
    <path clip-path="url(#p464a59a7cb)" d="M 268.145455 346.5 
L 281.672727 346.5 
L 281.672727 177.266038 
L 268.145455 177.266038 
z
" style="fill:#4878cf;"/>
   </g>
   <g id="patch_17">
    <path clip-path="url(#p464a59a7cb)" d="M 281.672727 346.5 
L 295.2 346.5 
L 295.2 130.256604 
L 281.672727 130.256604 
z
" style="fill:#4878cf;"/>
   </g>
   <g id="patch_18">
    <path clip-path="url(#p464a59a7cb)" d="M 295.2 346.5 
L 308.727273 346.5 
L 308.727273 208.157951 
L 295.2 208.157951 
z
" style="fill:#4878cf;"/>
   </g>
   <g id="patch_19">
    <path clip-path="url(#p464a59a7cb)" d="M 308.727273 346.5 
L 322.254545 346.5 
L 322.254545 261.883019 
L 308.727273 261.883019 
z
" style="fill:#4878cf;"/>
   </g>
   <g id="patch_20">
    <path clip-path="url(#p464a59a7cb)" d="M 322.254545 346.5 
L 335.781818 346.5 
L 335.781818 292.774933 
L 322.254545 292.774933 
z
" style="fill:#4878cf;"/>
   </g>
   <g id="patch_21">
    <path clip-path="url(#p464a59a7cb)" d="M 335.781818 346.5 
L 349.309091 346.5 
L 349.309091 316.951213 
L 335.781818 316.951213 
z
" style="fill:#4878cf;"/>
   </g>
   <g id="patch_22">
    <path clip-path="url(#p464a59a7cb)" d="M 349.309091 346.5 
L 362.836364 346.5 
L 362.836364 333.068733 
L 349.309091 333.068733 
z
" style="fill:#4878cf;"/>
   </g>
   <g id="patch_23">
    <path clip-path="url(#p464a59a7cb)" d="M 362.836364 346.5 
L 376.363636 346.5 
L 376.363636 341.127493 
L 362.836364 341.127493 
z
" style="fill:#4878cf;"/>
   </g>
   <g id="patch_24">
    <path clip-path="url(#p464a59a7cb)" d="M 376.363636 346.5 
L 389.890909 346.5 
L 389.890909 331.725606 
L 376.363636 331.725606 
z
" style="fill:#4878cf;"/>
   </g>
   <g id="patch_25">
    <path clip-path="url(#p464a59a7cb)" d="M 389.890909 346.5 
L 403.418182 346.5 
L 403.418182 302.176819 
L 389.890909 302.176819 
z
" style="fill:#4878cf;"/>
   </g>
   <g id="patch_26">
    <path clip-path="url(#p464a59a7cb)" d="M 403.418182 346.5 
L 416.945455 346.5 
L 416.945455 170.550404 
L 403.418182 170.550404 
z
" style="fill:#4878cf;"/>
   </g>
   <g id="patch_27">
    <path clip-path="url(#p464a59a7cb)" d="M 416.945455 346.5 
L 430.472727 346.5 
L 430.472727 81.904043 
L 416.945455 81.904043 
z
" style="fill:#4878cf;"/>
   </g>
   <g id="patch_28">
    <path clip-path="url(#p464a59a7cb)" d="M 430.472727 346.5 
L 444 346.5 
L 444 61.757143 
L 430.472727 61.757143 
z
" style="fill:#4878cf;"/>
   </g>
   <g id="patch_29">
    <path clip-path="url(#p464a59a7cb)" d="M 444 346.5 
L 457.527273 346.5 
L 457.527273 149.060377 
L 444 149.060377 
z
" style="fill:#4878cf;"/>
   </g>
   <g id="patch_30">
    <path clip-path="url(#p464a59a7cb)" d="M 457.527273 346.5 
L 471.054545 346.5 
L 471.054545 268.598652 
L 457.527273 268.598652 
z
" style="fill:#4878cf;"/>
   </g>
   <g id="patch_31">
    <path clip-path="url(#p464a59a7cb)" d="M 471.054545 346.5 
L 484.581818 346.5 
L 484.581818 325.009973 
L 471.054545 325.009973 
z
" style="fill:#4878cf;"/>
   </g>
   <g id="patch_32">
    <path clip-path="url(#p464a59a7cb)" d="M 484.581818 346.5 
L 498.109091 346.5 
L 498.109091 345.156873 
L 484.581818 345.156873 
z
" style="fill:#4878cf;"/>
   </g>
   <g id="patch_33">
    <path d="M 72 346.5 
L 72 47.52 
" style="fill:none;stroke:#cccccc;stroke-linecap:square;stroke-linejoin:miter;"/>
   </g>
   <g id="patch_34">
    <path d="M 518.4 346.5 
L 518.4 47.52 
" style="fill:none;stroke:#cccccc;stroke-linecap:square;stroke-linejoin:miter;"/>
   </g>
   <g id="patch_35">
    <path d="M 72 346.5 
L 518.4 346.5 
" style="fill:none;stroke:#cccccc;stroke-linecap:square;stroke-linejoin:miter;"/>
   </g>
   <g id="patch_36">
    <path d="M 72 47.52 
L 518.4 47.52 
" style="fill:none;stroke:#cccccc;stroke-linecap:square;stroke-linejoin:miter;"/>
   </g>
   <g id="text_16">
    <text style="fill:#262626;font-family:Franklin ITC Std;font-size:16px;font-style:normal;font-weight:400;text-anchor:middle;" transform="rotate(-0, 295.2, 41.52)" x="295.2" y="41.52">Histogram of pitches thrown by speed</text>
   </g>
  </g>
 </g>
 <defs>
  <clipPath id="p464a59a7cb">
   <rect height="298.98" width="446.4" x="72" y="47.52"/>
  </clipPath>
 </defs>
</svg>
