<?xml version="1.0" encoding="utf-8" standalone="no"?>
<!DOCTYPE svg PUBLIC "-//W3C//DTD SVG 1.1//EN"
  "http://www.w3.org/Graphics/SVG/1.1/DTD/svg11.dtd">
<!-- Created with matplotlib (http://matplotlib.org/) -->
<svg height="288pt" version="1.1" viewBox="0 0 432 288" width="432pt" xmlns="http://www.w3.org/2000/svg" xmlns:xlink="http://www.w3.org/1999/xlink">
 <defs>
  <style type="text/css">
*{stroke-linecap:butt;stroke-linejoin:round;}
  </style>
 </defs>
 <g id="figure_1">
  <g id="patch_1">
   <path d="M 0 288 
L 432 288 
L 432 0 
L 0 0 
z
" style="fill:#ffffff;"/>
  </g>
  <g id="axes_1">
   <g id="patch_2">
    <path d="M 54 252 
L 388.8 252 
L 388.8 34.56 
L 54 34.56 
z
" style="fill:#eaeaf2;"/>
   </g>
   <g id="matplotlib.axis_1">
    <g id="xtick_1">
     <g id="line2d_1">
      <path clip-path="url(#p467ef633e5)" d="M 85.368089 252 
L 85.368089 34.56 
" style="fill:none;stroke:#ffffff;stroke-linecap:round;"/>
     </g>
     <g id="line2d_2"/>
     <g id="text_1">
      <text style="fill:#262626;font-family:Franklin ITC Std;font-size:10px;font-style:normal;font-weight:400;text-anchor:middle;" transform="rotate(-0, 85.368089, 265.670313)" x="85.368089" y="265.670313">75</text>
     </g>
    </g>
    <g id="xtick_2">
     <g id="line2d_3">
      <path clip-path="url(#p467ef633e5)" d="M 147.483117 252 
L 147.483117 34.56 
" style="fill:none;stroke:#ffffff;stroke-linecap:round;"/>
     </g>
     <g id="line2d_4"/>
     <g id="text_2">
      <text style="fill:#262626;font-family:Franklin ITC Std;font-size:10px;font-style:normal;font-weight:400;text-anchor:middle;" transform="rotate(-0, 147.483117, 265.670313)" x="147.483117" y="265.670313">80</text>
     </g>
    </g>
    <g id="xtick_3">
     <g id="line2d_5">
      <path clip-path="url(#p467ef633e5)" d="M 209.598145 252 
L 209.598145 34.56 
" style="fill:none;stroke:#ffffff;stroke-linecap:round;"/>
     </g>
     <g id="line2d_6"/>
     <g id="text_3">
      <text style="fill:#262626;font-family:Franklin ITC Std;font-size:10px;font-style:normal;font-weight:400;text-anchor:middle;" transform="rotate(-0, 209.598145, 265.670313)" x="209.598145" y="265.670313">85</text>
     </g>
    </g>
    <g id="xtick_4">
     <g id="line2d_7">
      <path clip-path="url(#p467ef633e5)" d="M 271.713173 252 
L 271.713173 34.56 
" style="fill:none;stroke:#ffffff;stroke-linecap:round;"/>
     </g>
     <g id="line2d_8"/>
     <g id="text_4">
      <text style="fill:#262626;font-family:Franklin ITC Std;font-size:10px;font-style:normal;font-weight:400;text-anchor:middle;" transform="rotate(-0, 271.713173, 265.670313)" x="271.713173" y="265.670313">90</text>
     </g>
    </g>
    <g id="xtick_5">
     <g id="line2d_9">
      <path clip-path="url(#p467ef633e5)" d="M 333.8282 252 
L 333.8282 34.56 
" style="fill:none;stroke:#ffffff;stroke-linecap:round;"/>
     </g>
     <g id="line2d_10"/>
     <g id="text_5">
      <text style="fill:#262626;font-family:Franklin ITC Std;font-size:10px;font-style:normal;font-weight:400;text-anchor:middle;" transform="rotate(-0, 333.8282, 265.670313)" x="333.8282" y="265.670313">95</text>
     </g>
    </g>
   </g>
   <g id="matplotlib.axis_2">
    <g id="ytick_1">
     <g id="line2d_11">
      <path clip-path="url(#p467ef633e5)" d="M 54 252 
L 388.8 252 
" style="fill:none;stroke:#ffffff;stroke-linecap:round;"/>
     </g>
     <g id="line2d_12"/>
     <g id="text_6">
      <text style="fill:#262626;font-family:Franklin ITC Std;font-size:10px;font-style:normal;font-weight:400;text-anchor:end;" transform="rotate(-0, 47, 255.335156)" x="47" y="255.335156">0</text>
     </g>
    </g>
    <g id="ytick_2">
     <g id="line2d_13">
      <path clip-path="url(#p467ef633e5)" d="M 54 227.579515 
L 388.8 227.579515 
" style="fill:none;stroke:#ffffff;stroke-linecap:round;"/>
     </g>
     <g id="line2d_14"/>
     <g id="text_7">
      <text style="fill:#262626;font-family:Franklin ITC Std;font-size:10px;font-style:normal;font-weight:400;text-anchor:end;" transform="rotate(-0, 47, 230.914671)" x="47" y="230.914671">25</text>
     </g>
    </g>
    <g id="ytick_3">
     <g id="line2d_15">
      <path clip-path="url(#p467ef633e5)" d="M 54 203.15903 
L 388.8 203.15903 
" style="fill:none;stroke:#ffffff;stroke-linecap:round;"/>
     </g>
     <g id="line2d_16"/>
     <g id="text_8">
      <text style="fill:#262626;font-family:Franklin ITC Std;font-size:10px;font-style:normal;font-weight:400;text-anchor:end;" transform="rotate(-0, 47, 206.494186)" x="47" y="206.494186">50</text>
     </g>
    </g>
    <g id="ytick_4">
     <g id="line2d_17">
      <path clip-path="url(#p467ef633e5)" d="M 54 178.738544 
L 388.8 178.738544 
" style="fill:none;stroke:#ffffff;stroke-linecap:round;"/>
     </g>
     <g id="line2d_18"/>
     <g id="text_9">
      <text style="fill:#262626;font-family:Franklin ITC Std;font-size:10px;font-style:normal;font-weight:400;text-anchor:end;" transform="rotate(-0, 47, 182.073701)" x="47" y="182.073701">75</text>
     </g>
    </g>
    <g id="ytick_5">
     <g id="line2d_19">
      <path clip-path="url(#p467ef633e5)" d="M 54 154.318059 
L 388.8 154.318059 
" style="fill:none;stroke:#ffffff;stroke-linecap:round;"/>
     </g>
     <g id="line2d_20"/>
     <g id="text_10">
      <text style="fill:#262626;font-family:Franklin ITC Std;font-size:10px;font-style:normal;font-weight:400;text-anchor:end;" transform="rotate(-0, 47, 157.653216)" x="47" y="157.653216">100</text>
     </g>
    </g>
    <g id="ytick_6">
     <g id="line2d_21">
      <path clip-path="url(#p467ef633e5)" d="M 54 129.897574 
L 388.8 129.897574 
" style="fill:none;stroke:#ffffff;stroke-linecap:round;"/>
     </g>
     <g id="line2d_22"/>
     <g id="text_11">
      <text style="fill:#262626;font-family:Franklin ITC Std;font-size:10px;font-style:normal;font-weight:400;text-anchor:end;" transform="rotate(-0, 47, 133.23273)" x="47" y="133.23273">125</text>
     </g>
    </g>
    <g id="ytick_7">
     <g id="line2d_23">
      <path clip-path="url(#p467ef633e5)" d="M 54 105.477089 
L 388.8 105.477089 
" style="fill:none;stroke:#ffffff;stroke-linecap:round;"/>
     </g>
     <g id="line2d_24"/>
     <g id="text_12">
      <text style="fill:#262626;font-family:Franklin ITC Std;font-size:10px;font-style:normal;font-weight:400;text-anchor:end;" transform="rotate(-0, 47, 108.812245)" x="47" y="108.812245">150</text>
     </g>
    </g>
    <g id="ytick_8">
     <g id="line2d_25">
      <path clip-path="url(#p467ef633e5)" d="M 54 81.056604 
L 388.8 81.056604 
" style="fill:none;stroke:#ffffff;stroke-linecap:round;"/>
     </g>
     <g id="line2d_26"/>
     <g id="text_13">
      <text style="fill:#262626;font-family:Franklin ITC Std;font-size:10px;font-style:normal;font-weight:400;text-anchor:end;" transform="rotate(-0, 47, 84.39176)" x="47" y="84.39176">175</text>
     </g>
    </g>
    <g id="ytick_9">
     <g id="line2d_27">
      <path clip-path="url(#p467ef633e5)" d="M 54 56.636119 
L 388.8 56.636119 
" style="fill:none;stroke:#ffffff;stroke-linecap:round;"/>
     </g>
     <g id="line2d_28"/>
     <g id="text_14">
      <text style="fill:#262626;font-family:Franklin ITC Std;font-size:10px;font-style:normal;font-weight:400;text-anchor:end;" transform="rotate(-0, 47, 59.971275)" x="47" y="59.971275">200</text>
     </g>
    </g>
    <g id="text_15">
     <text style="fill:#262626;font-family:Franklin ITC Std;font-size:12px;font-style:normal;font-weight:400;text-anchor:middle;" transform="rotate(-90, 23.435313, 143.28)" x="23.435313" y="143.28">Frequency</text>
    </g>
   </g>
   <g id="patch_3">
    <path clip-path="url(#p467ef633e5)" d="M 69.218182 252 
L 79.363636 252 
L 79.363636 250.046361 
L 69.218182 250.046361 
z
" style="fill:#4c72b0;"/>
   </g>
   <g id="patch_4">
    <path clip-path="url(#p467ef633e5)" d="M 79.363636 252 
L 89.509091 252 
L 89.509091 248.092722 
L 79.363636 248.092722 
z
" style="fill:#4c72b0;"/>
   </g>
   <g id="patch_5">
    <path clip-path="url(#p467ef633e5)" d="M 89.509091 252 
L 99.654545 252 
L 99.654545 236.370889 
L 89.509091 236.370889 
z
" style="fill:#4c72b0;"/>
   </g>
   <g id="patch_6">
    <path clip-path="url(#p467ef633e5)" d="M 99.654545 252 
L 109.8 252 
L 109.8 232.463612 
L 99.654545 232.463612 
z
" style="fill:#4c72b0;"/>
   </g>
   <g id="patch_7">
    <path clip-path="url(#p467ef633e5)" d="M 109.8 252 
L 119.945455 252 
L 119.945455 218.78814 
L 109.8 218.78814 
z
" style="fill:#4c72b0;"/>
   </g>
   <g id="patch_8">
    <path clip-path="url(#p467ef633e5)" d="M 119.945455 252 
L 130.090909 252 
L 130.090909 215.857682 
L 119.945455 215.857682 
z
" style="fill:#4c72b0;"/>
   </g>
   <g id="patch_9">
    <path clip-path="url(#p467ef633e5)" d="M 130.090909 252 
L 140.236364 252 
L 140.236364 233.440431 
L 130.090909 233.440431 
z
" style="fill:#4c72b0;"/>
   </g>
   <g id="patch_10">
    <path clip-path="url(#p467ef633e5)" d="M 140.236364 252 
L 150.381818 252 
L 150.381818 247.115903 
L 140.236364 247.115903 
z
" style="fill:#4c72b0;"/>
   </g>
   <g id="patch_11">
    <path clip-path="url(#p467ef633e5)" d="M 150.381818 252 
L 160.527273 252 
L 160.527273 250.046361 
L 150.381818 250.046361 
z
" style="fill:#4c72b0;"/>
   </g>
   <g id="patch_12">
    <path clip-path="url(#p467ef633e5)" d="M 160.527273 252 
L 170.672727 252 
L 170.672727 249.069542 
L 160.527273 249.069542 
z
" style="fill:#4c72b0;"/>
   </g>
   <g id="patch_13">
    <path clip-path="url(#p467ef633e5)" d="M 170.672727 252 
L 180.818182 252 
L 180.818182 242.231806 
L 170.672727 242.231806 
z
" style="fill:#4c72b0;"/>
   </g>
   <g id="patch_14">
    <path clip-path="url(#p467ef633e5)" d="M 180.818182 252 
L 190.963636 252 
L 190.963636 218.78814 
L 180.818182 218.78814 
z
" style="fill:#4c72b0;"/>
   </g>
   <g id="patch_15">
    <path clip-path="url(#p467ef633e5)" d="M 190.963636 252 
L 201.109091 252 
L 201.109091 168.97035 
L 190.963636 168.97035 
z
" style="fill:#4c72b0;"/>
   </g>
   <g id="patch_16">
    <path clip-path="url(#p467ef633e5)" d="M 201.109091 252 
L 211.254545 252 
L 211.254545 128.920755 
L 201.109091 128.920755 
z
" style="fill:#4c72b0;"/>
   </g>
   <g id="patch_17">
    <path clip-path="url(#p467ef633e5)" d="M 211.254545 252 
L 221.4 252 
L 221.4 94.732075 
L 211.254545 94.732075 
z
" style="fill:#4c72b0;"/>
   </g>
   <g id="patch_18">
    <path clip-path="url(#p467ef633e5)" d="M 221.4 252 
L 231.545455 252 
L 231.545455 151.387601 
L 221.4 151.387601 
z
" style="fill:#4c72b0;"/>
   </g>
   <g id="patch_19">
    <path clip-path="url(#p467ef633e5)" d="M 231.545455 252 
L 241.690909 252 
L 241.690909 190.460377 
L 231.545455 190.460377 
z
" style="fill:#4c72b0;"/>
   </g>
   <g id="patch_20">
    <path clip-path="url(#p467ef633e5)" d="M 241.690909 252 
L 251.836364 252 
L 251.836364 212.927224 
L 241.690909 212.927224 
z
" style="fill:#4c72b0;"/>
   </g>
   <g id="patch_21">
    <path clip-path="url(#p467ef633e5)" d="M 251.836364 252 
L 261.981818 252 
L 261.981818 230.509973 
L 251.836364 230.509973 
z
" style="fill:#4c72b0;"/>
   </g>
   <g id="patch_22">
    <path clip-path="url(#p467ef633e5)" d="M 261.981818 252 
L 272.127273 252 
L 272.127273 242.231806 
L 261.981818 242.231806 
z
" style="fill:#4c72b0;"/>
   </g>
   <g id="patch_23">
    <path clip-path="url(#p467ef633e5)" d="M 272.127273 252 
L 282.272727 252 
L 282.272727 248.092722 
L 272.127273 248.092722 
z
" style="fill:#4c72b0;"/>
   </g>
   <g id="patch_24">
    <path clip-path="url(#p467ef633e5)" d="M 282.272727 252 
L 292.418182 252 
L 292.418182 241.254987 
L 282.272727 241.254987 
z
" style="fill:#4c72b0;"/>
   </g>
   <g id="patch_25">
    <path clip-path="url(#p467ef633e5)" d="M 292.418182 252 
L 302.563636 252 
L 302.563636 219.76496 
L 292.418182 219.76496 
z
" style="fill:#4c72b0;"/>
   </g>
   <g id="patch_26">
    <path clip-path="url(#p467ef633e5)" d="M 302.563636 252 
L 312.709091 252 
L 312.709091 124.036658 
L 302.563636 124.036658 
z
" style="fill:#4c72b0;"/>
   </g>
   <g id="patch_27">
    <path clip-path="url(#p467ef633e5)" d="M 312.709091 252 
L 322.854545 252 
L 322.854545 59.566577 
L 312.709091 59.566577 
z
" style="fill:#4c72b0;"/>
   </g>
   <g id="patch_28">
    <path clip-path="url(#p467ef633e5)" d="M 322.854545 252 
L 333 252 
L 333 44.914286 
L 322.854545 44.914286 
z
" style="fill:#4c72b0;"/>
   </g>
   <g id="patch_29">
    <path clip-path="url(#p467ef633e5)" d="M 333 252 
L 343.145455 252 
L 343.145455 108.407547 
L 333 108.407547 
z
" style="fill:#4c72b0;"/>
   </g>
   <g id="patch_30">
    <path clip-path="url(#p467ef633e5)" d="M 343.145455 252 
L 353.290909 252 
L 353.290909 195.344474 
L 343.145455 195.344474 
z
" style="fill:#4c72b0;"/>
   </g>
   <g id="patch_31">
    <path clip-path="url(#p467ef633e5)" d="M 353.290909 252 
L 363.436364 252 
L 363.436364 236.370889 
L 353.290909 236.370889 
z
" style="fill:#4c72b0;"/>
   </g>
   <g id="patch_32">
    <path clip-path="url(#p467ef633e5)" d="M 363.436364 252 
L 373.581818 252 
L 373.581818 251.023181 
L 363.436364 251.023181 
z
" style="fill:#4c72b0;"/>
   </g>
   <g id="patch_33">
    <path d="M 54 252 
L 54 34.56 
" style="fill:none;"/>
   </g>
   <g id="patch_34">
    <path d="M 388.8 252 
L 388.8 34.56 
" style="fill:none;"/>
   </g>
   <g id="patch_35">
    <path d="M 54 252 
L 388.8 252 
" style="fill:none;"/>
   </g>
   <g id="patch_36">
    <path d="M 54 34.56 
L 388.8 34.56 
" style="fill:none;"/>
   </g>
   <g id="text_16">
    <text style="fill:#262626;font-family:Franklin ITC Std;font-size:16px;font-style:normal;font-weight:400;text-anchor:middle;" transform="rotate(-0, 221.4, 28.56)" x="221.4" y="28.56">Histogram of pitches thrown by speed</text>
   </g>
  </g>
 </g>
 <defs>
  <clipPath id="p467ef633e5">
   <rect height="217.44" width="334.8" x="54" y="34.56"/>
  </clipPath>
 </defs>
</svg>
